# xmcd CD database file
#
# Track frame offsets:
#	150
#	12920
#	29355
#	38850
#	48050
#	69930
#	86850
#	104440
#	118015
#	157220
#	175550
#	186920
#	211445
#	227815
#	244575
#	258810
#	280895
#	298625
#
# Disc length: 4322 seconds
#
# Revision: 0
# Processed by: cddbd v1.5.2PL0 Copyright (c) Steve Scherf et al.
# Submitted via: CDex 1.70beta2
#
DISCID=f910e012
DTITLE=Nils Landgren - Christmas With My Friends
DYEAR=2006
DGENRE=Jazz
TTITLE0=Maybe This Christmas
TTITLE1=Ave Maris Stella
TTITLE2=Bereden Vaeg Foer Herran
TTITLE3=Jul Jul Stralande Jul
TTITLE4=When You Wish Upon A Star
TTITLE5=Christmas Song
TTITLE6=Lascia Ch'io Pianga
TTITLE7=Nu Taendas Tusen Juleljus
TTITLE8=Medley, In Dulce Jubilo, Det Kimer Na Til Julefest
TTITLE9=Glaens Oever Sjoe Och Strand
TTITLE10=Det Stralar En Stjaerna
TTITLE11=Es Ist Ein Ros Entsprungen
TTITLE12=White Christmas
TTITLE13=What Child Is This?
TTITLE14=Naer Juldagsmorgon Glimmar
TTITLE15=Have Yourself A Merry Little Christmas
TTITLE16=Till Betlehem
TTITLE17=Stille Nacht, Heilige Nacht
EXTD=YEAR: 2006
EXTT0=
EXTT1=
EXTT2=
EXTT3=
EXTT4=
EXTT5=
EXTT6=
EXTT7=
EXTT8=
EXTT9=
EXTT10=
EXTT11=
EXTT12=
EXTT13=
EXTT14=
EXTT15=
EXTT16=
EXTT17=
PLAYORDER=
